<?xml version="1.0" standalone="no"?>
<!DOCTYPE svg PUBLIC "-//W3C//DTD SVG 20010904//EN"
 "http://www.w3.org/TR/2001/REC-SVG-20010904/DTD/svg10.dtd">
<svg version="1.0" xmlns="http://www.w3.org/2000/svg"
 width="440.000000pt" height="397.000000pt" viewBox="0 0 440.000000 397.000000"
 preserveAspectRatio="xMidYMid meet">

<g transform="translate(0.000000,397.000000) scale(0.100000,-0.100000)"
fill="#000000" stroke="none">
<path d="M70 3606 c0 -23 56 -188 105 -308 243 -596 739 -1112 1320 -1376 61
-28 121 -53 134 -57 21 -6 23 -5 17 11 -4 11 -21 55 -37 99 -48 131 -171 372
-256 500 -200 302 -470 574 -755 759 -49 32 -88 60 -88 62 0 12 241 -122 350
-193 427 -281 766 -663 989 -1117 207 -420 301 -837 301 -1344 l0 -172 -50 25
c-158 80 -378 69 -515 -25 -82 -56 -165 -142 -225 -232 -83 -124 -90 -169 -27
-176 19 -2 30 4 43 25 61 100 104 157 139 181 64 46 78 45 30 -2 -25 -23 -45
-48 -45 -54 0 -24 75 -94 129 -121 201 -101 478 -54 586 98 l30 43 6 376 c8
457 26 607 113 908 97 336 296 718 516 989 91 113 278 303 390 397 125 105
357 260 497 331 61 31 114 57 118 57 4 0 -40 -31 -97 -68 -286 -189 -540 -445
-742 -747 -79 -119 -223 -404 -266 -528 -36 -105 -48 -104 145 -12 534 253
977 692 1235 1221 56 116 127 292 158 396 l20 68 -26 -7 c-118 -28 -356 -127
-539 -223 -419 -220 -810 -569 -1085 -970 -217 -316 -379 -685 -462 -1050 -13
-58 -26 -98 -30 -90 -3 8 -17 62 -31 120 -113 454 -303 844 -586 1201 -104
131 -354 381 -482 483 -266 211 -584 386 -902 496 -65 22 -119 40 -121 40 -2
0 -4 -6 -4 -14z"/>
</g>
</svg>
